<svg width="51" height="37" viewBox="0 0 51 37" fill="none" xmlns="http://www.w3.org/2000/svg">
<path d="M0.543607 14.0293C0.0506981 11.2582 -0.195757 9.87271 0.187854 8.72624C0.484182 7.84063 1.03538 7.06029 1.77355 6.48137C2.72914 5.73192 4.12686 5.48761 6.92229 4.999L12.5463 4.01597C15.3418 3.52736 16.7395 3.28305 17.896 3.66332C18.7894 3.95706 19.5766 4.50346 20.1606 5.23519C20.9167 6.18246 21.1631 7.56799 21.656 10.3391L24.0331 23.7027C24.526 26.4737 24.7725 27.8593 24.3889 29.0057C24.0925 29.8913 23.5413 30.6717 22.8032 31.2506C21.8476 32 20.4499 32.2443 17.6544 32.733L12.0304 33.716C9.23496 34.2046 7.83724 34.4489 6.6807 34.0686C5.7873 33.7749 5.0001 33.2285 4.41609 32.4968C3.66005 31.5495 3.41359 30.164 2.92068 27.3929L0.543607 14.0293Z" fill="#767779" fill-opacity="0.4"/>
<path d="M6.23603 11.3487C5.98863 8.54561 5.86493 7.14406 6.34788 6.0351C6.72095 5.17846 7.33866 4.44871 8.12492 3.93576C9.14277 3.27172 10.5567 3.1491 13.3844 2.90386L21.4464 2.20467C24.2742 1.95943 25.6881 1.83681 26.8068 2.31556C27.6709 2.68537 28.4071 3.2977 28.9246 4.07711C29.5944 5.08609 29.7181 6.48764 29.9655 9.29075L31.4435 26.0365C31.6909 28.8396 31.8146 30.2412 31.3316 31.3501C30.9585 32.2068 30.3408 32.9365 29.5546 33.4495C28.5367 34.1135 27.1228 34.2361 24.2951 34.4814L16.2331 35.1806C13.4053 35.4258 11.9914 35.5484 10.8727 35.0697C10.0086 34.6999 9.2724 34.0875 8.75494 33.3081C8.08507 32.2992 7.96137 30.8976 7.71397 28.0945L6.23603 11.3487Z" fill="#A3A4A5"/>
<path d="M48.0793 27.7392C47.5864 30.5102 47.34 31.8958 46.5839 32.843C45.9999 33.5748 45.2127 34.1212 44.3193 34.4149C43.1628 34.7952 41.765 34.5509 38.9696 34.0623L33.3456 33.0792C30.5501 32.5906 29.1524 32.3463 28.1968 31.5969C27.4587 31.0179 26.9075 30.2376 26.6111 29.352C26.2275 28.2055 26.474 26.82 26.9669 24.0489L29.344 10.6853C29.8369 7.91427 30.0833 6.52873 30.8394 5.58147C31.4234 4.84973 32.2106 4.30334 33.104 4.00959C34.2605 3.62932 35.6582 3.87363 38.4537 4.36224L44.0777 5.34527C46.8731 5.83389 48.2709 6.07819 49.2265 6.82764C49.9646 7.40657 50.5158 8.18691 50.8121 9.07252C51.1958 10.219 50.9493 11.6045 50.4564 14.3756L48.0793 27.7392Z" fill="#767779"/>
<path d="M43.3073 27.8906C43.0599 30.6937 42.9362 32.0952 42.2663 33.1042C41.7489 33.8836 41.0127 34.496 40.1485 34.8658C39.0298 35.3445 37.616 35.2219 34.7882 34.9767L26.7262 34.2775C23.8984 34.0322 22.4846 33.9096 21.4667 33.2456C20.6804 32.7326 20.0627 32.0029 19.6897 31.1462C19.2067 30.0373 19.3304 28.6357 19.5778 25.8326L21.0558 9.08684C21.3032 6.28373 21.4268 4.88217 22.0967 3.87319C22.6142 3.09378 23.3503 2.48145 24.2145 2.11164C25.3332 1.6329 26.7471 1.75552 29.5749 2.00076L37.6369 2.69995C40.4646 2.94519 41.8785 3.06781 42.8964 3.73184C43.6826 4.24479 44.3003 4.97454 44.6734 5.83118C45.1563 6.94014 45.0326 8.34169 44.7852 11.1448L43.3073 27.8906Z" fill="#A3A4A5"/>
<path d="M12.2901 9.16126C12.2901 6.03479 12.2901 4.47156 12.933 3.29043C13.4296 2.37804 14.1846 1.6296 15.105 1.1373C16.2965 0.5 17.8735 0.5 21.0275 0.5H30.0195C33.1734 0.5 34.7504 0.5 35.9419 1.1373C36.8623 1.6296 37.6173 2.37804 38.114 3.29043C38.7569 4.47156 38.7569 6.03479 38.7569 9.16125V27.8387C38.7569 30.9652 38.7569 32.5284 38.114 33.7096C37.6173 34.622 36.8623 35.3704 35.9419 35.8627C34.7504 36.5 33.1734 36.5 30.0195 36.5H21.0275C17.8735 36.5 16.2965 36.5 15.105 35.8627C14.1846 35.3704 13.4296 34.622 12.933 33.7096C12.2901 32.5284 12.2901 30.9652 12.2901 27.8387V9.16126Z" fill="white"/>
<path d="M25.49 9.86532C26.3691 14.2226 29.805 17.6285 34.2006 18.5C29.805 19.3715 26.3691 22.7774 25.49 27.1347C24.6109 22.7774 21.175 19.3715 16.7794 18.5C21.175 17.6285 24.6109 14.2226 25.49 9.86532Z" fill="#1A1C1F"/>
</svg>
