<svg width="231" height="47" viewBox="0 0 231 47" fill="none" xmlns="http://www.w3.org/2000/svg">
<path d="M0.691921 17.7874C0.0645301 14.2466 -0.249165 12.4762 0.239106 11.0113C0.616282 9.8797 1.31787 8.8826 2.25743 8.14286C3.47374 7.18523 5.2528 6.87306 8.81091 6.24872L15.9694 4.99263C19.5275 4.36829 21.3065 4.05612 22.7786 4.54201C23.9158 4.91736 24.9177 5.61553 25.6611 6.55053C26.6234 7.76092 26.9371 9.53133 27.5645 13.0721L30.5901 30.1478C31.2175 33.6886 31.5312 35.459 31.0429 36.924C30.6658 38.0556 29.9642 39.0527 29.0246 39.7924C27.8083 40.7501 26.0292 41.0622 22.4711 41.6866L15.3127 42.9427C11.7545 43.567 9.97549 43.8792 8.50341 43.3933C7.36626 43.0179 6.36429 42.3198 5.62094 41.3848C4.65863 40.1744 4.34493 38.404 3.71754 34.8631L0.691921 17.7874Z" fill="#767779" fill-opacity="0.4"/>
<path d="M7.93742 14.3623C7.62252 10.7805 7.46508 8.98963 8.07979 7.57262C8.55464 6.47803 9.34089 5.54557 10.3417 4.89014C11.6372 4.04165 13.4368 3.88497 17.0361 3.5716L27.2977 2.6782C30.897 2.36483 32.6966 2.20815 34.1205 2.81988C35.2205 3.29242 36.1575 4.07484 36.8161 5.07075C37.6687 6.36 37.8262 8.15088 38.1411 11.7326L40.0223 33.13C40.3371 36.7118 40.4946 38.5026 39.8799 39.9196C39.405 41.0142 38.6188 41.9467 37.618 42.6021C36.3225 43.4506 34.5228 43.6073 30.9236 43.9207L20.662 44.8141C17.0627 45.1274 15.2631 45.2841 13.8392 44.6724C12.7392 44.1998 11.8022 43.4174 11.1436 42.4215C10.2909 41.1323 10.1335 39.3414 9.81859 35.7596L7.93742 14.3623Z" fill="#A3A4A5"/>
<path d="M61.1969 35.3056C60.5695 38.8464 60.2558 40.6168 59.2935 41.8272C58.5501 42.7622 57.5482 43.4604 56.411 43.8357C54.9389 44.3216 53.1599 44.0095 49.6018 43.3851L42.4433 42.129C38.8852 41.5047 37.1061 41.1925 35.8898 40.2349C34.9503 39.4951 34.2487 38.498 33.8715 37.3664C33.3832 35.9015 33.6969 34.1311 34.3243 30.5903L37.3499 13.5146C37.9773 9.97379 38.291 8.20338 39.2533 6.99299C39.9967 6.05799 40.9987 5.35982 42.1358 4.98448C43.6079 4.49858 45.3869 4.81075 48.9451 5.43509L56.1035 6.69118C59.6616 7.31552 61.4407 7.62769 62.657 8.58532C63.5966 9.32506 64.2982 10.3222 64.6753 11.4538C65.1636 12.9187 64.8499 14.6891 64.2225 18.2299L61.1969 35.3056Z" fill="#767779"/>
<path d="M55.1229 35.4991C54.808 39.0808 54.6506 40.8717 53.7979 42.1609C53.1393 43.1569 52.2023 43.9393 51.1024 44.4118C49.6784 45.0235 47.8788 44.8669 44.2795 44.5535L34.0179 43.6601C30.4187 43.3467 28.6191 43.1901 27.3235 42.3416C26.3227 41.6861 25.5365 40.7537 25.0616 39.6591C24.4469 38.2421 24.6044 36.4512 24.9193 32.8694L26.8004 11.4721C27.1153 7.89032 27.2728 6.09944 28.1254 4.81019C28.7841 3.81428 29.7211 3.03186 30.821 2.55932C32.2449 1.94759 34.0446 2.10427 37.6438 2.41764L47.9054 3.31104C51.5047 3.62441 53.3043 3.78109 54.5999 4.62958C55.6006 5.28501 56.3869 6.21747 56.8617 7.31206C57.4764 8.72907 57.319 10.5199 57.0041 14.1017L55.1229 35.4991Z" fill="#A3A4A5"/>
<path d="M15.6432 11.5672C15.6432 7.57224 15.6432 5.57477 16.4615 4.06555C17.0936 2.89972 18.0546 1.94338 19.2262 1.31433C20.7428 0.5 22.75 0.5 26.7644 0.5H38.2098C42.2242 0.5 44.2314 0.5 45.748 1.31433C46.9195 1.94338 47.8806 2.89972 48.5127 4.06555C49.331 5.57477 49.331 7.57223 49.331 11.5672V35.4328C49.331 39.4278 49.331 41.4252 48.5127 42.9344C47.8806 44.1003 46.9195 45.0566 45.748 45.6857C44.2314 46.5 42.2242 46.5 38.2098 46.5H26.7644C22.75 46.5 20.7428 46.5 19.2262 45.6857C18.0546 45.0566 17.0936 44.1003 16.4615 42.9344C15.6432 41.4252 15.6432 39.4278 15.6432 35.4328V11.5672Z" fill="white"/>
<path d="M32.4445 12.4668C33.5634 18.0344 37.9367 22.3865 43.5316 23.5C37.9367 24.6135 33.5634 28.9656 32.4445 34.5332C31.3255 28.9656 26.9522 24.6135 21.3573 23.5C26.9522 22.3865 31.3255 18.0344 32.4445 12.4668Z" fill="#1A1C1F"/>
<path d="M104.51 33.5576C102.157 35.9654 99.1737 37.1693 95.561 37.1693C91.9483 37.1693 88.9654 35.9654 86.6123 33.5576C84.2593 31.1259 83.0828 28.0624 83.0828 24.3672C83.0828 20.672 84.2593 17.6204 86.6123 15.2126C88.9654 12.7809 91.9483 11.565 95.561 11.565C99.1737 11.565 102.157 12.7809 104.51 15.2126C106.863 17.6204 108.039 20.672 108.039 24.3672C108.039 28.0624 106.863 31.1259 104.51 33.5576ZM89.6071 30.9113C91.1758 32.6278 93.1604 33.486 95.561 33.486C97.9616 33.486 99.9343 32.6278 101.479 30.9113C103.048 29.1948 103.832 27.0134 103.832 24.3672C103.832 21.7209 103.048 19.5396 101.479 17.8231C99.9343 16.0827 97.9616 15.2126 95.561 15.2126C93.1604 15.2126 91.1758 16.0827 89.6071 17.8231C88.0622 19.5396 87.2897 21.7209 87.2897 24.3672C87.2897 27.0134 88.0622 29.1948 89.6071 30.9113Z" fill="white"/>
<path d="M111.689 43.3916V18.8601H115.575V21.1488C116.098 20.3859 116.858 19.766 117.857 19.2892C118.855 18.8124 119.96 18.574 121.172 18.574C123.787 18.574 125.843 19.4323 127.34 21.1488C128.861 22.8653 129.622 25.1062 129.622 27.8717C129.622 30.6371 128.837 32.8781 127.269 34.5946C125.724 36.3111 123.62 37.1693 120.958 37.1693C119.865 37.1693 118.831 36.9548 117.857 36.5257C116.882 36.0965 116.122 35.5244 115.575 34.8092V43.3916H111.689ZM116.751 32.1629C117.702 33.2357 118.962 33.7721 120.531 33.7721C122.099 33.7721 123.359 33.2357 124.31 32.1629C125.26 31.0663 125.736 29.6359 125.736 27.8717C125.736 26.0837 125.26 24.6533 124.31 23.5805C123.359 22.5077 122.099 21.9713 120.531 21.9713C118.962 21.9713 117.702 22.5077 116.751 23.5805C115.801 24.6533 115.325 26.0837 115.325 27.8717C115.325 29.6359 115.801 31.0663 116.751 32.1629Z" fill="white"/>
<path d="M149.855 27.1922C149.855 27.8359 149.831 28.3723 149.784 28.8015H136.058C136.224 30.3511 136.771 31.5788 137.698 32.4848C138.648 33.3907 139.837 33.8436 141.263 33.8436C142.451 33.8436 143.438 33.5814 144.222 33.0569C145.006 32.5086 145.517 31.7457 145.755 30.7683L149.427 31.698C148.952 33.4384 147.989 34.7853 146.539 35.7389C145.089 36.6925 143.307 37.1693 141.191 37.1693C138.458 37.1693 136.283 36.2634 134.667 34.4516C133.051 32.6159 132.243 30.4226 132.243 27.8717C132.243 25.297 133.015 23.1037 134.56 21.2918C136.129 19.48 138.28 18.574 141.013 18.574C143.77 18.574 145.933 19.4204 147.502 21.113C149.071 22.8057 149.855 24.8321 149.855 27.1922ZM136.236 25.8334H145.719C145.6 24.5698 145.125 23.5566 144.293 22.7937C143.485 22.0309 142.392 21.6494 141.013 21.6494C139.777 21.6494 138.743 22.0189 137.911 22.758C137.08 23.4732 136.521 24.4983 136.236 25.8334Z" fill="white"/>
<path d="M153.469 36.8833V18.8601H157.355V21.864C158.733 19.6707 160.706 18.574 163.273 18.574C165.198 18.574 166.755 19.17 167.943 20.362C169.155 21.5302 169.762 23.0798 169.762 25.0109V36.8833H165.875V25.9049C165.875 24.7606 165.543 23.8427 164.877 23.1513C164.212 22.4361 163.32 22.0785 162.203 22.0785C160.682 22.0785 159.494 22.6865 158.638 23.9023C157.782 25.1182 157.355 26.8108 157.355 28.9803V36.8833H153.469Z" fill="white"/>
<path d="M199.894 36.8833L197.684 30.9828H187.416L185.206 36.8833H180.892L190.589 11.8511H194.475L204.208 36.8833H199.894ZM188.771 27.371H196.329L192.55 17.3582L188.771 27.371Z" fill="white"/>
<path d="M216.612 22.4361C216.256 22.3646 215.852 22.3289 215.4 22.3289C213.974 22.3289 212.821 22.9725 211.942 24.2599C211.086 25.5473 210.659 27.5141 210.659 30.1603V36.8833H206.773V18.8601H210.659V22.2931C211.086 21.1965 211.776 20.3024 212.726 19.6111C213.701 18.9197 214.735 18.574 215.828 18.574L216.862 18.6456L216.612 22.4361Z" fill="white"/>
<path d="M231 36.7402C230.144 37.0263 229.194 37.1693 228.148 37.1693C226.365 37.1693 224.927 36.6687 223.834 35.6674C222.764 34.6661 222.23 33.1761 222.23 31.1974V22.1858H219.092V18.8601H222.23V13.4961H226.116V18.8601H230.75V22.1858H226.116V30.9828C226.116 31.8649 226.33 32.5444 226.757 33.0212C227.209 33.4741 227.815 33.7006 228.576 33.7006C229.431 33.7006 230.156 33.5576 230.75 33.2715L231 36.7402Z" fill="white"/>
</svg>
